# xmcd
#
# Track frame offsets:
#	225
#	12769
#	26680
#	41175
#	54969
#	66839
#	77587
#	93754
#	109614
#	124217
#	141218
#	153776
#	170431
#
# Disc length: 2461 seconds
#
# Revision: 1
# Processed by: cddbd v1.5.1PL2 Copyright (c) Steve Scherf et al.
# Submitted via: audiograbber 1.83.01
#
DISCID=9d099a0d
DTITLE=The Ackermans - Home And Away
DYEAR=2006
DGENRE=Country
TTITLE0=My Belle Amiga
TTITLE1=Down On Granddaddy's Farm
TTITLE2=Viva Lake Geneva, Viva Lac Leman
TTITLE3=The Man Who Sold The Moon
TTITLE4=It's All The Same To Me
TTITLE5=Regardez, Johnny Hallyday
TTITLE6=Two Davids
TTITLE7=Take Me Back To Amarillo
TTITLE8=America's Favorite Reality Show
TTITLE9=A Song For Ann-Margret
TTITLE10=Bring Back The USA
TTITLE11=Children Dressed In Uniforms
TTITLE12=Common Ground
EXTD=www.TheAckermans.com
EXTT0=
EXTT1=
EXTT2=
EXTT3=
EXTT4=
EXTT5=
EXTT6=
EXTT7=
EXTT8=
EXTT9=
EXTT10=
EXTT11=
EXTT12=
PLAYORDER=
